<?xml version="1.0" encoding="utf-8"?>
<!-- Generator: Adobe Illustrator 24.1.2, SVG Export Plug-In . SVG Version: 6.00 Build 0)  -->
<svg version="1.1" id="Capa_1" xmlns="http://www.w3.org/2000/svg" xmlns:xlink="http://www.w3.org/1999/xlink" x="0px" y="0px"
	 viewBox="0 0 16 16" style="enable-background:new 0 0 16 16;" xml:space="preserve">
<style type="text/css">
	.st0{fill-rule:evenodd;clip-rule:evenodd;fill:#FFFFFF;}
</style>
<path class="st0" d="M1.1,8.1V7.9c1-0.1,1.5-0.6,1.5-1.6V4.5C2.6,3.4,3,3,4,3h0.3V2H3.9C2.3,2,1.5,2.8,1.5,4.4v1.5
	C1.5,7,1.1,7.3,0,7.3v1.3c1.1,0,1.5,0.4,1.5,1.5v1.5c0,1.6,0.8,2.4,2.4,2.4h0.4v-1H4c-1,0-1.4-0.4-1.4-1.5V9.7
	C2.6,8.7,2.1,8.2,1.1,8.1z M14.9,7.9v0.2c-1,0.1-1.5,0.6-1.5,1.6v1.8c0,1.1-0.4,1.5-1.4,1.5h-0.3v1h0.4c1.6,0,2.4-0.8,2.4-2.4v-1.5
	c0-1.1,0.4-1.5,1.5-1.5V7.3c-1.1,0-1.5-0.4-1.5-1.5V4.4c0-1.6-0.8-2.4-2.4-2.4h-0.4v1H12c1,0,1.4,0.4,1.4,1.5v1.8
	C13.4,7.3,13.9,7.8,14.9,7.9z M7.5,11.5V9.2l-1.6,1.6l-0.7-0.7l1.6-1.6H4.5v-1h2.3L5.2,5.9l0.7-0.7l1.6,1.6V4.5h1v2.3l1.6-1.6
	l0.7,0.7L9.2,7.5h2.3v1H9.2l1.6,1.6l-0.7,0.7L8.5,9.2v2.3H7.5z"/>
</svg>
